<svg width="1216" height="600" viewBox="0 0 1216 600" fill="none" xmlns="http://www.w3.org/2000/svg">
<rect x="2" y="2" width="1212" height="596" rx="18" fill="#050505" fill-opacity="0.2" stroke="#009689" stroke-width="4"/>
<path d="M299.141 173.211L300.469 165.182H348.312L346.984 173.211H327.696L318.761 227H309.464L318.399 173.211H299.141ZM361.035 227.936C356.487 227.936 352.724 226.96 349.746 225.008C346.788 223.036 344.715 220.269 343.528 216.707C342.34 213.125 342.149 208.929 342.954 204.12C343.739 199.371 345.319 195.185 347.693 191.563C350.068 187.941 353.026 185.114 356.567 183.081C360.129 181.049 364.063 180.033 368.37 180.033C370.986 180.033 373.451 180.465 375.765 181.331C378.099 182.196 380.081 183.554 381.711 185.406C383.341 187.257 384.468 189.662 385.092 192.62C385.736 195.558 385.716 199.129 385.032 203.335L384.518 206.535H347.633L348.689 199.773H376.701C377.123 197.399 377.012 195.296 376.369 193.465C375.725 191.614 374.618 190.155 373.048 189.088C371.499 188.022 369.547 187.488 367.192 187.488C364.778 187.488 362.524 188.122 360.431 189.39C358.338 190.658 356.588 192.278 355.179 194.25C353.79 196.202 352.915 198.214 352.553 200.287L351.496 206.474C350.973 209.855 351.064 212.572 351.768 214.624C352.492 216.677 353.76 218.166 355.571 219.092C357.382 220.017 359.646 220.48 362.363 220.48C364.114 220.48 365.733 220.239 367.223 219.756C368.732 219.253 370.07 218.518 371.237 217.552C372.404 216.566 373.38 215.339 374.165 213.87L382.436 215.409C381.329 217.924 379.739 220.128 377.666 222.02C375.594 223.891 373.149 225.35 370.332 226.396C367.534 227.423 364.436 227.936 361.035 227.936ZM410.515 165.182L400.252 227H391.227L401.49 165.182H410.515ZM425.766 228.026C422.828 228.026 420.262 227.483 418.069 226.396C415.875 225.29 414.255 223.69 413.209 221.597C412.162 219.504 411.891 216.938 412.394 213.9C412.837 211.284 413.702 209.131 414.99 207.44C416.298 205.75 417.888 204.412 419.759 203.426C421.63 202.42 423.663 201.665 425.856 201.162C428.05 200.659 430.263 200.287 432.497 200.045C435.314 199.723 437.598 199.451 439.349 199.23C441.12 199.009 442.448 198.667 443.333 198.204C444.219 197.721 444.752 196.936 444.933 195.849V195.638C445.356 193.022 444.973 190.99 443.786 189.541C442.619 188.072 440.586 187.337 437.689 187.337C434.67 187.337 432.135 188.001 430.082 189.33C428.05 190.658 426.551 192.147 425.585 193.797L417.495 191.865C418.944 189.048 420.785 186.774 423.019 185.043C425.273 183.293 427.738 182.025 430.414 181.24C433.091 180.435 435.827 180.033 438.624 180.033C440.476 180.033 442.397 180.254 444.39 180.697C446.382 181.119 448.193 181.904 449.823 183.051C451.473 184.198 452.7 185.838 453.505 187.971C454.31 190.084 454.431 192.831 453.868 196.212L448.766 227H439.953L441.039 220.661H440.677C439.912 221.828 438.846 222.975 437.477 224.102C436.129 225.229 434.479 226.165 432.527 226.909C430.575 227.654 428.321 228.026 425.766 228.026ZM428.845 220.782C431.36 220.782 433.584 220.289 435.515 219.303C437.467 218.317 439.047 217.029 440.254 215.439C441.462 213.829 442.216 212.109 442.518 210.278L443.514 204.301C443.132 204.623 442.458 204.915 441.492 205.176C440.546 205.438 439.48 205.67 438.292 205.871C437.105 206.072 435.938 206.243 434.791 206.384C433.664 206.525 432.728 206.656 431.984 206.776C430.213 206.998 428.553 207.37 427.003 207.893C425.474 208.416 424.196 209.171 423.17 210.157C422.144 211.123 421.5 212.411 421.238 214.021C420.876 216.254 421.409 217.945 422.838 219.092C424.287 220.219 426.289 220.782 428.845 220.782ZM504.291 227H484.007L494.27 165.182H514.644C520.722 165.182 525.742 166.45 529.707 168.985C533.671 171.5 536.448 175.103 538.038 179.791C539.627 184.46 539.879 190.044 538.792 196.544C537.746 202.903 535.693 208.356 532.635 212.904C529.596 217.431 525.682 220.913 520.893 223.348C516.103 225.783 510.57 227 504.291 227ZM494.723 218.85H504.684C509.392 218.85 513.467 217.935 516.908 216.103C520.369 214.272 523.177 211.616 525.33 208.135C527.483 204.653 528.972 200.417 529.797 195.427C530.602 190.678 530.532 186.663 529.586 183.383C528.64 180.083 526.809 177.588 524.092 175.897C521.376 174.187 517.764 173.332 513.256 173.332H502.239L494.723 218.85ZM557.997 228.026C555.059 228.026 552.493 227.483 550.3 226.396C548.107 225.29 546.487 223.69 545.44 221.597C544.394 219.504 544.122 216.938 544.625 213.9C545.068 211.284 545.933 209.131 547.221 207.44C548.529 205.75 550.119 204.412 551.99 203.426C553.862 202.42 555.894 201.665 558.088 201.162C560.281 200.659 562.495 200.287 564.728 200.045C567.546 199.723 569.83 199.451 571.58 199.23C573.351 199.009 574.679 198.667 575.565 198.204C576.45 197.721 576.983 196.936 577.164 195.849V195.638C577.587 193.022 577.205 190.99 576.017 189.541C574.85 188.072 572.818 187.337 569.92 187.337C566.902 187.337 564.366 188.001 562.314 189.33C560.281 190.658 558.782 192.147 557.816 193.797L549.727 191.865C551.175 189.048 553.017 186.774 555.25 185.043C557.504 183.293 559.969 182.025 562.646 181.24C565.322 180.435 568.059 180.033 570.856 180.033C572.707 180.033 574.629 180.254 576.621 180.697C578.613 181.119 580.424 181.904 582.054 183.051C583.704 184.198 584.932 185.838 585.737 187.971C586.542 190.084 586.663 192.831 586.099 196.212L580.998 227H572.184L573.271 220.661H572.908C572.144 221.828 571.077 222.975 569.709 224.102C568.361 225.229 566.71 226.165 564.759 226.909C562.807 227.654 560.553 228.026 557.997 228.026ZM561.076 220.782C563.591 220.782 565.815 220.289 567.747 219.303C569.699 218.317 571.278 217.029 572.486 215.439C573.693 213.829 574.448 212.109 574.75 210.278L575.746 204.301C575.363 204.623 574.689 204.915 573.723 205.176C572.778 205.438 571.711 205.67 570.524 205.871C569.337 206.072 568.169 206.243 567.022 206.384C565.895 206.525 564.96 206.656 564.215 206.776C562.444 206.998 560.784 207.37 559.235 207.893C557.705 208.416 556.428 209.171 555.401 210.157C554.375 211.123 553.731 212.411 553.469 214.021C553.107 216.254 553.641 217.945 555.069 219.092C556.518 220.219 558.52 220.782 561.076 220.782ZM633.617 191.956L625.196 193.404C625.015 192.338 624.642 191.332 624.079 190.386C623.536 189.44 622.7 188.676 621.574 188.092C620.447 187.488 618.948 187.186 617.076 187.186C614.48 187.186 612.206 187.78 610.254 188.967C608.323 190.155 607.216 191.664 606.934 193.495C606.672 194.984 607.025 196.192 607.991 197.117C608.956 198.023 610.657 198.777 613.092 199.381L620.215 201.071C624.32 202.057 627.258 203.597 629.029 205.69C630.82 207.762 631.444 210.459 630.901 213.779C630.438 216.536 629.23 218.981 627.278 221.114C625.347 223.247 622.872 224.917 619.853 226.125C616.835 227.332 613.474 227.936 609.771 227.936C604.499 227.936 600.394 226.819 597.456 224.585C594.518 222.352 593.009 219.192 592.928 215.107L601.863 213.779C602.024 216.053 602.839 217.774 604.308 218.941C605.797 220.088 607.86 220.661 610.496 220.661C613.514 220.681 616.04 220.047 618.072 218.76C620.105 217.472 621.262 215.912 621.543 214.081C621.785 212.652 621.463 211.465 620.578 210.519C619.712 209.573 618.183 208.849 615.989 208.346L608.504 206.625C604.318 205.639 601.36 204.05 599.629 201.856C597.899 199.663 597.315 196.906 597.879 193.586C598.321 190.869 599.468 188.504 601.32 186.492C603.191 184.46 605.556 182.88 608.413 181.753C611.271 180.606 614.43 180.033 617.891 180.033C622.942 180.033 626.735 181.119 629.271 183.293C631.806 185.446 633.255 188.333 633.617 191.956ZM652.173 199.472L647.646 227H638.62L648.883 165.182H657.788L653.984 188.183H654.558C656.027 185.667 657.999 183.685 660.474 182.236C662.969 180.767 666.028 180.033 669.65 180.033C672.83 180.033 675.496 180.687 677.649 181.995C679.822 183.303 681.352 185.255 682.237 187.85C683.143 190.426 683.284 193.646 682.66 197.51L677.71 227H668.684L673.393 198.596C673.957 195.195 673.514 192.559 672.065 190.688C670.616 188.796 668.352 187.85 665.273 187.85C663.12 187.85 661.128 188.303 659.297 189.209C657.486 190.114 655.956 191.442 654.709 193.193C653.461 194.924 652.616 197.017 652.173 199.472ZM690.447 227L700.71 165.182H709.735L705.962 188.152H706.506C707.19 187.186 708.126 186.07 709.313 184.802C710.52 183.534 712.08 182.427 713.991 181.482C715.903 180.516 718.298 180.033 721.175 180.033C724.918 180.033 728.098 180.978 730.714 182.87C733.33 184.762 735.181 187.488 736.268 191.05C737.354 194.612 737.485 198.898 736.66 203.909C735.835 208.919 734.286 213.216 732.012 216.798C729.758 220.359 727.011 223.106 723.771 225.038C720.531 226.95 717.04 227.906 713.297 227.906C710.48 227.906 708.256 227.433 706.626 226.487C705.017 225.541 703.809 224.434 703.004 223.167C702.219 221.899 701.626 220.772 701.223 219.786H700.469L699.261 227H690.447ZM703.155 203.818C702.632 207.078 702.632 209.936 703.155 212.391C703.699 214.846 704.755 216.767 706.325 218.156C707.914 219.524 709.997 220.208 712.573 220.208C715.269 220.208 717.644 219.494 719.696 218.065C721.749 216.616 723.439 214.654 724.767 212.179C726.096 209.704 727.021 206.917 727.544 203.818C728.027 200.759 728.017 198.013 727.514 195.578C727.011 193.143 725.965 191.221 724.375 189.812C722.805 188.404 720.662 187.7 717.946 187.7C715.33 187.7 713.005 188.374 710.973 189.722C708.941 191.07 707.26 192.952 705.932 195.366C704.604 197.781 703.678 200.598 703.155 203.818ZM762.672 227.936C758.265 227.936 754.582 226.93 751.624 224.917C748.666 222.885 746.583 220.047 745.376 216.405C744.189 212.743 743.987 208.487 744.772 203.637C745.537 198.888 747.076 194.743 749.391 191.201C751.725 187.659 754.643 184.913 758.144 182.961C761.666 181.009 765.58 180.033 769.886 180.033C774.293 180.033 777.965 181.049 780.903 183.081C783.861 185.114 785.944 187.961 787.152 191.624C788.359 195.286 788.57 199.552 787.785 204.422C787.021 209.131 785.461 213.256 783.107 216.798C780.773 220.319 777.855 223.056 774.353 225.008C770.852 226.96 766.958 227.936 762.672 227.936ZM763.185 220.359C766.083 220.359 768.608 219.595 770.761 218.065C772.935 216.536 774.705 214.504 776.074 211.968C777.442 209.433 778.378 206.656 778.881 203.637C779.344 200.719 779.334 198.053 778.851 195.638C778.388 193.203 777.382 191.251 775.832 189.782C774.283 188.313 772.13 187.579 769.373 187.579C766.475 187.579 763.929 188.354 761.736 189.903C759.563 191.432 757.792 193.475 756.424 196.031C755.075 198.586 754.16 201.373 753.677 204.392C753.214 207.289 753.214 209.956 753.677 212.391C754.14 214.805 755.146 216.737 756.695 218.186C758.245 219.635 760.408 220.359 763.185 220.359ZM807.519 228.026C804.581 228.026 802.015 227.483 799.822 226.396C797.628 225.29 796.008 223.69 794.962 221.597C793.915 219.504 793.644 216.938 794.147 213.9C794.59 211.284 795.455 209.131 796.743 207.44C798.051 205.75 799.64 204.412 801.512 203.426C803.383 202.42 805.416 201.665 807.609 201.162C809.803 200.659 812.016 200.287 814.25 200.045C817.067 199.723 819.351 199.451 821.102 199.23C822.873 199.009 824.201 198.667 825.086 198.204C825.972 197.721 826.505 196.936 826.686 195.849V195.638C827.108 193.022 826.726 190.99 825.539 189.541C824.372 188.072 822.339 187.337 819.442 187.337C816.423 187.337 813.888 188.001 811.835 189.33C809.803 190.658 808.303 192.147 807.338 193.797L799.248 191.865C800.697 189.048 802.538 186.774 804.772 185.043C807.026 183.293 809.491 182.025 812.167 181.24C814.843 180.435 817.58 180.033 820.377 180.033C822.229 180.033 824.15 180.254 826.143 180.697C828.135 181.119 829.946 181.904 831.576 183.051C833.226 184.198 834.453 185.838 835.258 187.971C836.063 190.084 836.184 192.831 835.621 196.212L830.519 227H821.705L822.792 220.661H822.43C821.665 221.828 820.599 222.975 819.23 224.102C817.882 225.229 816.232 226.165 814.28 226.909C812.328 227.654 810.074 228.026 807.519 228.026ZM810.597 220.782C813.113 220.782 815.336 220.289 817.268 219.303C819.22 218.317 820.8 217.029 822.007 215.439C823.215 213.829 823.969 212.109 824.271 210.278L825.267 204.301C824.885 204.623 824.211 204.915 823.245 205.176C822.299 205.438 821.233 205.67 820.045 205.871C818.858 206.072 817.691 206.243 816.544 206.384C815.417 206.525 814.481 206.656 813.737 206.776C811.966 206.998 810.306 207.37 808.756 207.893C807.227 208.416 805.949 209.171 804.923 210.157C803.896 211.123 803.253 212.411 802.991 214.021C802.629 216.254 803.162 217.945 804.591 219.092C806.04 220.219 808.042 220.782 810.597 220.782ZM842.54 227L850.268 180.636H858.991L857.753 188.001H858.236C859.484 185.506 861.305 183.544 863.7 182.115C866.094 180.667 868.65 179.942 871.367 179.942C871.95 179.942 872.614 179.962 873.359 180.002C874.103 180.023 874.707 180.073 875.17 180.153L873.721 188.786C873.379 188.686 872.755 188.575 871.85 188.454C870.944 188.313 870.008 188.243 869.043 188.243C866.93 188.243 864.968 188.696 863.157 189.601C861.345 190.487 859.826 191.724 858.599 193.314C857.371 194.884 856.576 196.674 856.214 198.687L851.566 227H842.54ZM890.964 227.906C887.201 227.906 884.012 226.95 881.396 225.038C878.8 223.106 876.958 220.359 875.872 216.798C874.805 213.216 874.685 208.919 875.51 203.909C876.355 198.898 877.914 194.612 880.188 191.05C882.462 187.488 885.219 184.762 888.459 182.87C891.699 180.978 895.19 180.033 898.933 180.033C901.81 180.033 904.044 180.516 905.634 181.482C907.244 182.427 908.431 183.534 909.196 184.802C909.96 186.07 910.534 187.186 910.916 188.152H911.429L915.263 165.182H924.288L914.025 227H905.211L906.449 219.786H905.694C904.99 220.772 904.014 221.899 902.766 223.167C901.539 224.434 899.969 225.541 898.058 226.487C896.146 227.433 893.781 227.906 890.964 227.906ZM894.013 220.208C896.609 220.208 898.933 219.524 900.985 218.156C903.058 216.767 904.779 214.846 906.147 212.391C907.536 209.936 908.501 207.078 909.045 203.818C909.588 200.598 909.578 197.781 909.015 195.366C908.451 192.952 907.364 191.07 905.755 189.722C904.145 188.374 902.022 187.7 899.386 187.7C896.669 187.7 894.305 188.404 892.292 189.812C890.28 191.221 888.63 193.143 887.342 195.578C886.074 198.013 885.189 200.759 884.686 203.818C884.163 206.917 884.142 209.704 884.625 212.179C885.108 214.654 886.125 216.616 887.674 218.065C889.223 219.494 891.336 220.208 894.013 220.208ZM604.538 330.936C599.99 330.936 596.227 329.96 593.249 328.008C590.291 326.036 588.218 323.269 587.031 319.707C585.844 316.125 585.653 311.929 586.458 307.12C587.242 302.371 588.822 298.185 591.197 294.563C593.571 290.941 596.529 288.114 600.071 286.081C603.633 284.049 607.567 283.033 611.873 283.033C614.489 283.033 616.954 283.465 619.268 284.331C621.603 285.196 623.585 286.554 625.215 288.406C626.845 290.257 627.971 292.662 628.595 295.62C629.239 298.558 629.219 302.129 628.535 306.335L628.022 309.535H591.136L592.193 302.773H620.204C620.627 300.399 620.516 298.296 619.872 296.465C619.228 294.614 618.121 293.155 616.552 292.088C615.002 291.022 613.05 290.488 610.696 290.488C608.281 290.488 606.027 291.122 603.934 292.39C601.842 293.658 600.091 295.278 598.682 297.25C597.294 299.202 596.418 301.214 596.056 303.287L595 309.474C594.477 312.855 594.567 315.572 595.271 317.624C595.996 319.677 597.264 321.166 599.075 322.092C600.886 323.017 603.15 323.48 605.866 323.48C607.617 323.48 609.237 323.239 610.726 322.756C612.235 322.253 613.573 321.518 614.741 320.552C615.908 319.566 616.884 318.339 617.668 316.87L625.939 318.409C624.832 320.924 623.243 323.128 621.17 325.02C619.097 326.891 616.652 328.35 613.835 329.396C611.038 330.423 607.939 330.936 604.538 330.936ZM280.015 433L290.278 371.182H328.613L327.284 379.211H298.277L295.138 398.046H321.398L320.07 406.045H293.81L289.342 433H280.015ZM358.76 413.772L363.287 386.636H372.343L364.615 433H355.741L357.099 424.971H356.616C355.168 427.446 353.115 429.509 350.459 431.159C347.823 432.789 344.764 433.604 341.283 433.604C338.304 433.604 335.779 432.95 333.706 431.642C331.654 430.314 330.195 428.352 329.33 425.756C328.464 423.16 328.343 419.95 328.967 416.127L333.918 386.636H342.943L338.204 415.04C337.701 418.199 338.174 420.715 339.622 422.586C341.071 424.458 343.184 425.393 345.961 425.393C347.652 425.393 349.402 424.971 351.213 424.126C353.024 423.281 354.624 422.003 356.013 420.292C357.421 418.582 358.337 416.408 358.76 413.772ZM390.325 405.472L385.797 433H376.772L384.5 386.636H393.163L391.895 394.183H392.468C393.937 391.707 395.939 389.735 398.475 388.266C401.031 386.777 404.049 386.033 407.53 386.033C410.67 386.033 413.306 386.697 415.439 388.025C417.592 389.333 419.111 391.285 419.997 393.881C420.902 396.477 421.043 399.686 420.419 403.51L415.469 433H406.444L411.183 404.596C411.726 401.236 411.283 398.61 409.855 396.718C408.446 394.806 406.202 393.85 403.123 393.85C401.031 393.85 399.089 394.303 397.298 395.209C395.527 396.114 394.028 397.442 392.8 399.193C391.593 400.924 390.768 403.017 390.325 405.472ZM446.952 433.936C442.444 433.936 438.751 432.92 435.874 430.887C432.996 428.835 430.994 426.007 429.867 422.405C428.74 418.803 428.559 414.678 429.324 410.029C430.088 405.321 431.648 401.165 434.002 397.563C436.377 393.941 439.345 391.114 442.907 389.081C446.489 387.049 450.463 386.033 454.83 386.033C458.351 386.033 461.38 386.687 463.915 387.995C466.451 389.283 468.373 391.094 469.681 393.428C470.989 395.762 471.552 398.489 471.371 401.608H462.587C462.446 399.435 461.641 397.563 460.172 395.994C458.703 394.424 456.54 393.639 453.683 393.639C451.167 393.639 448.853 394.303 446.74 395.631C444.627 396.939 442.846 398.811 441.398 401.246C439.949 403.661 438.963 406.518 438.439 409.818C437.876 413.199 437.906 416.117 438.53 418.572C439.154 421.027 440.301 422.928 441.971 424.277C443.641 425.625 445.744 426.299 448.28 426.299C450.01 426.299 451.62 425.987 453.109 425.363C454.618 424.719 455.947 423.804 457.094 422.616C458.261 421.429 459.166 420 459.81 418.33H468.624C467.759 421.329 466.31 424.005 464.278 426.359C462.265 428.714 459.79 430.565 456.852 431.913C453.914 433.262 450.614 433.936 446.952 433.936ZM475.77 433L483.498 386.636H492.523L484.796 433H475.77ZM489.897 379.392C488.327 379.392 486.999 378.869 485.912 377.822C484.846 376.756 484.353 375.488 484.433 374.019C484.514 372.53 485.138 371.262 486.305 370.216C487.472 369.149 488.83 368.616 490.38 368.616C491.949 368.616 493.267 369.149 494.334 370.216C495.4 371.262 495.904 372.53 495.843 374.019C495.763 375.488 495.139 376.756 493.972 377.822C492.825 378.869 491.466 379.392 489.897 379.392ZM516.678 433.936C512.271 433.936 508.589 432.93 505.631 430.917C502.672 428.885 500.59 426.047 499.382 422.405C498.195 418.743 497.994 414.487 498.779 409.637C499.543 404.888 501.083 400.743 503.397 397.201C505.731 393.659 508.649 390.913 512.15 388.961C515.672 387.009 519.586 386.033 523.892 386.033C528.299 386.033 531.972 387.049 534.91 389.081C537.868 391.114 539.951 393.961 541.158 397.624C542.365 401.286 542.577 405.552 541.792 410.422C541.027 415.131 539.468 419.256 537.113 422.798C534.779 426.319 531.861 429.056 528.36 431.008C524.858 432.96 520.964 433.936 516.678 433.936ZM517.191 426.359C520.089 426.359 522.614 425.595 524.768 424.065C526.941 422.536 528.712 420.504 530.08 417.968C531.448 415.433 532.384 412.656 532.887 409.637C533.35 406.719 533.34 404.053 532.857 401.638C532.394 399.203 531.388 397.251 529.839 395.782C528.289 394.313 526.136 393.579 523.379 393.579C520.481 393.579 517.936 394.354 515.742 395.903C513.569 397.432 511.798 399.475 510.43 402.031C509.082 404.586 508.166 407.373 507.683 410.392C507.22 413.289 507.22 415.956 507.683 418.391C508.146 420.805 509.152 422.737 510.702 424.186C512.251 425.635 514.414 426.359 517.191 426.359ZM561.736 405.472L557.209 433H548.183L555.911 386.636H564.574L563.306 394.183H563.879C565.348 391.707 567.351 389.735 569.886 388.266C572.442 386.777 575.46 386.033 578.942 386.033C582.081 386.033 584.717 386.697 586.85 388.025C589.003 389.333 590.522 391.285 591.408 393.881C592.313 396.477 592.454 399.686 591.83 403.51L586.88 433H577.855L582.594 404.596C583.137 401.236 582.694 398.61 581.266 396.718C579.857 394.806 577.613 393.85 574.535 393.85C572.442 393.85 570.5 394.303 568.709 395.209C566.938 396.114 565.439 397.442 564.211 399.193C563.004 400.924 562.179 403.017 561.736 405.472ZM612.326 434.026C609.388 434.026 606.822 433.483 604.629 432.396C602.435 431.29 600.815 429.69 599.769 427.597C598.723 425.504 598.451 422.938 598.954 419.9C599.397 417.284 600.262 415.131 601.55 413.44C602.858 411.75 604.448 410.412 606.319 409.426C608.19 408.42 610.223 407.665 612.416 407.162C614.61 406.659 616.823 406.287 619.057 406.045C621.874 405.723 624.158 405.451 625.909 405.23C627.68 405.009 629.008 404.667 629.893 404.204C630.779 403.721 631.312 402.936 631.493 401.849V401.638C631.916 399.022 631.533 396.99 630.346 395.541C629.179 394.072 627.146 393.337 624.249 393.337C621.23 393.337 618.695 394.001 616.642 395.33C614.61 396.658 613.111 398.147 612.145 399.797L604.055 397.865C605.504 395.048 607.345 392.774 609.579 391.043C611.833 389.293 614.298 388.025 616.974 387.24C619.651 386.435 622.387 386.033 625.184 386.033C627.036 386.033 628.958 386.254 630.95 386.697C632.942 387.119 634.753 387.904 636.383 389.051C638.033 390.198 639.261 391.838 640.065 393.971C640.87 396.084 640.991 398.831 640.428 402.212L635.326 433H626.513L627.599 426.661H627.237C626.472 427.828 625.406 428.975 624.037 430.102C622.689 431.229 621.039 432.165 619.087 432.909C617.135 433.654 614.881 434.026 612.326 434.026ZM615.405 426.782C617.92 426.782 620.144 426.289 622.075 425.303C624.027 424.317 625.607 423.029 626.814 421.439C628.022 419.829 628.776 418.109 629.078 416.278L630.074 410.301C629.692 410.623 629.018 410.915 628.052 411.176C627.106 411.438 626.04 411.67 624.852 411.871C623.665 412.072 622.498 412.243 621.351 412.384C620.224 412.525 619.288 412.656 618.544 412.776C616.773 412.998 615.113 413.37 613.563 413.893C612.034 414.416 610.756 415.171 609.73 416.157C608.704 417.123 608.06 418.411 607.798 420.021C607.436 422.254 607.969 423.945 609.398 425.092C610.847 426.219 612.849 426.782 615.405 426.782ZM666.636 371.182L656.373 433H647.348L657.61 371.182H666.636ZM668.515 433L676.242 386.636H685.267L677.54 433H668.515ZM682.641 379.392C681.071 379.392 679.743 378.869 678.657 377.822C677.59 376.756 677.097 375.488 677.178 374.019C677.258 372.53 677.882 371.262 679.049 370.216C680.216 369.149 681.574 368.616 683.124 368.616C684.693 368.616 686.012 369.149 687.078 370.216C688.145 371.262 688.648 372.53 688.587 374.019C688.507 375.488 687.883 376.756 686.716 377.822C685.569 378.869 684.211 379.392 682.641 379.392ZM706.977 433.906C703.214 433.906 700.025 432.95 697.409 431.038C694.813 429.106 692.972 426.359 691.885 422.798C690.818 419.216 690.698 414.919 691.523 409.909C692.368 404.898 693.927 400.612 696.201 397.05C698.475 393.488 701.232 390.762 704.472 388.87C707.712 386.978 711.203 386.033 714.946 386.033C717.824 386.033 720.057 386.516 721.647 387.482C723.257 388.427 724.444 389.534 725.209 390.802C725.974 392.07 726.547 393.186 726.929 394.152H727.443L731.276 371.182H740.301L730.038 433H721.224L722.462 425.786H721.707C721.003 426.772 720.027 427.899 718.78 429.167C717.552 430.434 715.982 431.541 714.071 432.487C712.159 433.433 709.795 433.906 706.977 433.906ZM710.026 426.208C712.622 426.208 714.946 425.524 716.999 424.156C719.071 422.767 720.792 420.846 722.16 418.391C723.549 415.936 724.515 413.078 725.058 409.818C725.601 406.598 725.591 403.781 725.028 401.366C724.464 398.952 723.378 397.07 721.768 395.722C720.158 394.374 718.035 393.7 715.399 393.7C712.682 393.7 710.318 394.404 708.305 395.812C706.293 397.221 704.643 399.143 703.355 401.578C702.087 404.013 701.202 406.759 700.699 409.818C700.176 412.917 700.156 415.704 700.639 418.179C701.121 420.654 702.138 422.616 703.687 424.065C705.237 425.494 707.35 426.208 710.026 426.208ZM756.261 434.026C753.323 434.026 750.758 433.483 748.564 432.396C746.371 431.29 744.751 429.69 743.705 427.597C742.658 425.504 742.386 422.938 742.89 419.9C743.332 417.284 744.198 415.131 745.485 413.44C746.793 411.75 748.383 410.412 750.255 409.426C752.126 408.42 754.158 407.665 756.352 407.162C758.545 406.659 760.759 406.287 762.993 406.045C765.81 405.723 768.094 405.451 769.844 405.23C771.615 405.009 772.943 404.667 773.829 404.204C774.714 403.721 775.247 402.936 775.429 401.849V401.638C775.851 399.022 775.469 396.99 774.282 395.541C773.114 394.072 771.082 393.337 768.184 393.337C765.166 393.337 762.63 394.001 760.578 395.33C758.545 396.658 757.046 398.147 756.08 399.797L747.991 397.865C749.44 395.048 751.281 392.774 753.515 391.043C755.768 389.293 758.233 388.025 760.91 387.24C763.586 386.435 766.323 386.033 769.12 386.033C770.971 386.033 772.893 386.254 774.885 386.697C776.877 387.119 778.689 387.904 780.318 389.051C781.969 390.198 783.196 391.838 784.001 393.971C784.806 396.084 784.927 398.831 784.363 402.212L779.262 433H770.448L771.535 426.661H771.173C770.408 427.828 769.341 428.975 767.973 430.102C766.625 431.229 764.975 432.165 763.023 432.909C761.071 433.654 758.817 434.026 756.261 434.026ZM759.34 426.782C761.856 426.782 764.079 426.289 766.011 425.303C767.963 424.317 769.543 423.029 770.75 421.439C771.957 419.829 772.712 418.109 773.014 416.278L774.01 410.301C773.628 410.623 772.953 410.915 771.988 411.176C771.042 411.438 769.975 411.67 768.788 411.871C767.601 412.072 766.434 412.243 765.287 412.384C764.16 412.525 763.224 412.656 762.479 412.776C760.709 412.998 759.048 413.37 757.499 413.893C755.97 414.416 754.692 415.171 753.665 416.157C752.639 417.123 751.995 418.411 751.734 420.021C751.371 422.254 751.905 423.945 753.333 425.092C754.782 426.219 756.785 426.782 759.34 426.782ZM808.579 433.906C804.816 433.906 801.626 432.95 799.01 431.038C796.414 429.106 794.573 426.359 793.487 422.798C792.42 419.216 792.299 414.919 793.124 409.909C793.97 404.898 795.529 400.612 797.803 397.05C800.077 393.488 802.834 390.762 806.074 388.87C809.313 386.978 812.805 386.033 816.548 386.033C819.425 386.033 821.659 386.516 823.249 387.482C824.858 388.427 826.046 389.534 826.81 390.802C827.575 392.07 828.149 393.186 828.531 394.152H829.044L832.878 371.182H841.903L831.64 433H822.826L824.064 425.786H823.309C822.605 426.772 821.629 427.899 820.381 429.167C819.154 430.434 817.584 431.541 815.672 432.487C813.761 433.433 811.396 433.906 808.579 433.906ZM811.628 426.208C814.223 426.208 816.548 425.524 818.6 424.156C820.673 422.767 822.393 420.846 823.762 418.391C825.15 415.936 826.116 413.078 826.659 409.818C827.203 406.598 827.193 403.781 826.629 401.366C826.066 398.952 824.979 397.07 823.369 395.722C821.76 394.374 819.637 393.7 817 393.7C814.284 393.7 811.919 394.404 809.907 395.812C807.895 397.221 806.245 399.143 804.957 401.578C803.689 404.013 802.804 406.759 802.3 409.818C801.777 412.917 801.757 415.704 802.24 418.179C802.723 420.654 803.739 422.616 805.289 424.065C806.838 425.494 808.951 426.208 811.628 426.208ZM864.353 433.936C859.805 433.936 856.042 432.96 853.064 431.008C850.105 429.036 848.033 426.269 846.845 422.707C845.658 419.125 845.467 414.929 846.272 410.12C847.057 405.371 848.636 401.185 851.011 397.563C853.385 393.941 856.344 391.114 859.885 389.081C863.447 387.049 867.381 386.033 871.687 386.033C874.303 386.033 876.769 386.465 879.083 387.331C881.417 388.196 883.399 389.554 885.029 391.406C886.659 393.257 887.786 395.662 888.41 398.62C889.054 401.558 889.034 405.129 888.349 409.335L887.836 412.535H850.951L852.007 405.773H880.018C880.441 403.399 880.33 401.296 879.686 399.465C879.042 397.614 877.936 396.155 876.366 395.088C874.817 394.022 872.865 393.488 870.51 393.488C868.095 393.488 865.842 394.122 863.749 395.39C861.656 396.658 859.905 398.278 858.497 400.25C857.108 402.202 856.233 404.214 855.871 406.287L854.814 412.474C854.291 415.855 854.382 418.572 855.086 420.624C855.81 422.677 857.078 424.166 858.889 425.092C860.7 426.017 862.964 426.48 865.681 426.48C867.431 426.48 869.051 426.239 870.54 425.756C872.05 425.253 873.388 424.518 874.555 423.552C875.722 422.566 876.698 421.339 877.483 419.87L885.754 421.409C884.647 423.924 883.057 426.128 880.984 428.02C878.912 429.891 876.467 431.35 873.649 432.396C870.852 433.423 867.753 433.936 864.353 433.936ZM935.143 397.956L926.722 399.404C926.541 398.338 926.168 397.332 925.605 396.386C925.061 395.44 924.226 394.676 923.099 394.092C921.973 393.488 920.473 393.186 918.602 393.186C916.006 393.186 913.732 393.78 911.78 394.967C909.848 396.155 908.742 397.664 908.46 399.495C908.198 400.984 908.55 402.192 909.516 403.117C910.482 404.023 912.183 404.777 914.618 405.381L921.741 407.071C925.846 408.057 928.784 409.597 930.555 411.69C932.346 413.762 932.97 416.459 932.427 419.779C931.964 422.536 930.756 424.981 928.804 427.114C926.873 429.247 924.397 430.917 921.379 432.125C918.36 433.332 915 433.936 911.297 433.936C906.025 433.936 901.92 432.819 898.982 430.585C896.044 428.352 894.535 425.192 894.454 421.107L903.389 419.779C903.55 422.053 904.365 423.774 905.834 424.941C907.323 426.088 909.386 426.661 912.022 426.661C915.04 426.681 917.566 426.047 919.598 424.76C921.63 423.472 922.788 421.912 923.069 420.081C923.311 418.652 922.989 417.465 922.103 416.519C921.238 415.573 919.709 414.849 917.515 414.346L910.03 412.625C905.844 411.639 902.886 410.05 901.155 407.856C899.425 405.663 898.841 402.906 899.405 399.586C899.847 396.869 900.994 394.504 902.846 392.492C904.717 390.46 907.081 388.88 909.939 387.753C912.796 386.606 915.956 386.033 919.417 386.033C924.468 386.033 928.261 387.119 930.797 389.293C933.332 391.446 934.781 394.333 935.143 397.956Z" fill="white"/>
<path d="M1141.26 76.5839C1148.58 76.5839 1154.53 70.5668 1154.53 63.1678V29.1412L1184.37 40.1156V65.036C1182.36 63.8263 1180.07 63.1813 1177.74 63.1678C1170.42 63.1678 1164.47 69.1849 1164.47 76.5839C1164.47 83.9829 1170.42 90 1177.74 90C1185.05 90 1191 83.9829 1191 76.5839V37.7678C1191 37.0799 1190.79 36.4087 1190.4 35.8453C1190.01 35.282 1189.46 34.8536 1188.82 34.6183L1152.34 21.2022C1151.84 21.0179 1151.31 20.9584 1150.78 21.0286C1150.25 21.0989 1149.75 21.2969 1149.31 21.6059C1148.87 21.9149 1148.52 22.3258 1148.27 22.8038C1148.02 23.2817 1147.9 23.8127 1147.89 24.3517V51.6199C1145.89 50.4102 1143.6 49.7652 1141.26 49.7517C1133.95 49.7517 1128 55.7688 1128 63.1678C1128 70.5668 1133.95 76.5839 1141.26 76.5839Z" fill="white"/>
<path d="M1137.67 569C1143.56 569 1148.33 564.224 1148.33 558.333C1148.33 552.442 1143.56 547.667 1137.67 547.667C1131.78 547.667 1127 552.442 1127 558.333C1127 564.224 1131.78 569 1137.67 569Z" stroke="white" stroke-width="6" stroke-linecap="round" stroke-linejoin="round"/>
<path d="M1180.33 565.444C1186.22 565.444 1191 560.669 1191 554.778C1191 548.887 1186.22 544.111 1180.33 544.111C1174.44 544.111 1169.67 548.887 1169.67 554.778C1169.67 560.669 1174.44 565.444 1180.33 565.444Z" stroke="white" stroke-width="6" stroke-linecap="round" stroke-linejoin="round"/>
<path d="M1148.33 558.333V529.889M1148.33 529.889V515.667L1191 505V519.222M1148.33 529.889L1191 519.222M1191 554.778V519.222" stroke="white" stroke-width="6" stroke-linecap="round" stroke-linejoin="round"/>
<path fill-rule="evenodd" clip-rule="evenodd" d="M46.9 21.0012C45.9691 21.0238 45.084 21.4135 44.435 22.0866C43.7859 22.7597 43.4246 23.6626 43.4286 24.6013V66.1285C40.7052 64.5435 37.5392 63.9087 34.4215 64.3223C31.3037 64.736 28.4085 66.1751 26.1848 68.4164C23.9611 70.6577 22.5331 73.576 22.1224 76.7188C21.7117 79.8615 22.3411 83.053 23.9131 85.7984C25.4852 88.5438 27.9119 90.6896 30.817 91.9031C33.7221 93.1165 36.9432 93.3299 39.9808 92.5099C43.0184 91.69 45.7028 89.8827 47.6176 87.3682C49.5325 84.8538 50.5707 81.7727 50.5714 78.6028V43.2498L67.8429 46.1515C68.3543 46.2372 68.8781 46.2096 69.3778 46.0707C69.8776 45.9318 70.3414 45.6849 70.737 45.3472C71.1326 45.0094 71.4504 44.5888 71.6686 44.1147C71.8867 43.6407 71.9998 43.1244 72 42.6018V28.2014C71.9996 27.3492 71.6994 26.5248 71.1526 25.8748C70.6059 25.2249 69.8482 24.7914 69.0143 24.6517L47.6536 21.0624C47.4052 21.0152 47.1526 20.9947 46.9 21.0012Z" fill="white"/>
<path d="M66.8353 527.508C66.0957 525.827 64.9749 524.259 63.5249 522.878C62.074 521.491 60.2509 520.362 58.1801 519.567C56.0335 518.735 53.6588 518.311 51.2552 518.33C50.9545 518.33 50.5281 518.354 49.9758 518.4L48.1126 511.431C50.3012 509.766 52.2 507.89 53.7616 505.849C55.5059 503.573 56.8552 501.092 57.7641 498.482C58.7044 495.854 59.1588 493.263 59.1588 490.567C59.1588 484.907 57.2642 479.978 53.4714 475.853C53.0575 475.442 52.6054 475.055 52.1186 474.694C50.7413 473.74 49.364 473.587 46.162 475.409C44.519 476.355 43.0753 477.721 41.8833 479.457C40.6528 481.188 39.7579 483.128 39.1357 485.37C38.4708 487.74 38.1287 490.158 38.115 492.583C38.2557 496.225 38.9312 499.843 40.1285 503.368C37.4368 505.462 35.2625 507.212 33.5531 508.612C31.614 510.261 29.8169 512.005 28.1733 513.834C26.4168 515.776 24.9697 517.873 23.8632 520.08C22.7192 522.36 22.0891 524.773 22 527.215C22.028 529.855 22.6817 532.44 23.9611 534.913C25.2399 537.337 27.0699 539.566 29.3654 541.497C31.661 543.409 34.4223 544.956 37.4928 546.05C41.8887 547.589 46.7886 548.067 51.5453 547.421C51.769 548.195 52.0533 549.11 52.3982 550.168C52.9471 551.906 53.3561 553.317 53.6217 554.36C53.8781 555.412 54.0051 556.417 54.0028 557.376C54.0028 558.83 53.7965 559.942 53.3141 560.872C53.1393 561.415 52.6674 561.98 51.9123 562.539C51.0693 563.162 50.072 563.649 48.9795 563.971C47.5555 564.424 46.0049 564.592 44.4736 564.457C45.1564 564.174 45.7821 563.812 46.3508 563.369C47.8644 562.178 48.6299 560.714 48.6299 559.01C48.6254 557.806 48.2314 556.622 47.4833 555.564C46.7271 554.553 45.6647 553.696 44.3862 553.067C43.0952 552.463 41.6118 552.146 40.1005 552.151H40.0795C38.2898 552.242 36.7447 552.675 35.5317 553.417C34.2709 554.135 33.2782 555.077 32.5534 556.241C31.851 557.39 31.4496 558.634 31.3719 559.902C31.5117 562.697 33.0393 564.968 35.9372 566.642C38.6778 568.204 41.9043 569 45.5118 569C48.0067 569.017 50.4697 568.568 52.6884 567.691C54.8828 566.832 56.7308 565.529 58.0332 563.923C59.3266 562.305 59.9873 560.453 59.9873 558.424C59.9873 557.093 59.837 555.844 59.5364 554.61C59.123 552.93 58.6755 551.256 58.194 549.587C57.8275 548.383 57.4918 547.173 57.1873 545.959C60.5606 544.808 63.1719 543.139 64.9686 540.987C66.9764 538.583 68.0296 535.781 67.9994 532.924C67.9849 531.083 67.5921 529.255 66.8353 527.508ZM55.9219 541.425L52.2619 527.586C53.1708 527.735 54.0179 527.982 54.8033 528.328C56.1875 528.93 57.2607 529.75 58.1067 530.849C58.9491 531.897 59.4769 533.101 59.7007 534.351C59.7007 537.7 58.4632 540.035 55.9219 541.425ZM51.8739 491.331C51.204 492.81 50.3335 494.23 49.2766 495.569C48.293 496.856 47.1717 498.078 45.9243 499.221C45.6004 499.518 45.2646 499.806 44.9175 500.087C44.6301 499.056 44.4559 498.009 44.3967 496.956C44.4666 495.066 44.8244 493.189 45.4629 491.363C46.0571 489.586 46.8891 487.979 47.8923 486.644C48.962 485.384 50.062 484.752 51.1922 484.749C51.5942 484.749 51.8774 484.824 52.0976 484.983C52.3423 485.173 52.5136 485.542 52.622 486.203C52.7268 486.56 52.7863 487.017 52.7863 487.53C52.7863 488.721 52.4786 489.998 51.8739 491.331ZM34.5879 522.182C36.8705 519.647 39.6636 517.244 43.0858 514.877L44.2708 519.55C41.7645 520.523 39.6531 521.969 37.9752 523.877C36.0581 526.032 34.9989 528.57 34.9269 531.18C34.9864 533.633 36.0071 535.845 37.9717 537.767C39.8796 539.639 42.5496 540.964 45.5537 541.53L45.9732 541.61L46.3997 541.532C48.2769 541.191 48.4761 540.266 48.4761 539.885C48.4761 538.958 47.6931 538.216 46.4521 537.95C45.2255 537.538 44.2156 536.82 43.5857 535.913C42.8796 534.923 42.5055 533.996 42.5055 533.241C42.5055 531.962 43.0998 530.814 44.3093 529.739C45.0574 529.089 45.8194 528.576 46.5955 528.202L50.4162 543.005C49.2116 543.208 47.9897 543.345 46.7597 543.414C41.9218 543.293 37.9577 542.07 34.9829 539.785C33.5511 538.692 32.4131 537.392 31.634 535.961C30.9037 534.609 30.4987 533.167 30.4385 531.704C30.5399 528.29 31.9382 525.084 34.5879 522.182Z" fill="white"/>
<path d="M139.41 28.55C139.803 30.85 140.197 33.15 140.59 35.45C147.742 34.0192 155.268 32.7092 162.686 31.5013C226.916 22.1607 294.054 13.7034 357.423 31.9735C357.449 31.9823 357.475 31.9912 357.501 32C425.447 50.8816 497.264 43.3344 567.017 37.8704C574.502 37.1456 582.19 36.3442 589.539 35.4583C589.18 33.1528 588.82 30.8472 588.461 28.5417C581.339 29.851 573.697 31.0821 566.315 32.2056C497.36 41.4062 425.51 50.8894 357.501 32C357.475 31.9912 357.449 31.9823 357.423 31.9735C294.119 13.7147 227.035 20.2554 161.944 25.921C154.408 26.7094 146.83 27.5633 139.41 28.55Z" fill="white"/>
<path d="M29.5197 252.371C31.8399 252.124 34.1601 251.876 36.4803 251.629C36.0263 249.579 35.6011 247.389 35.2059 245.242C31.9887 226.578 29.6537 207.34 32.9981 188.551C32.9987 188.548 32.9994 188.545 33 188.542C36.4479 168.44 35.8353 147.854 36.3986 127.304C36.4329 125.102 36.4632 122.85 36.4836 120.662C34.1612 120.887 31.8388 121.113 29.5164 121.338C29.937 123.383 30.3369 125.606 30.7074 127.744C33.9226 147.793 36.4509 168.401 33 188.542C32.9994 188.545 32.9987 188.548 32.9981 188.551C29.658 207.301 30.1009 226.502 29.5956 245.707C29.5638 247.929 29.5323 250.151 29.5197 252.371Z" fill="white"/>
<path d="M1174.52 252.371C1176.84 252.124 1179.16 251.876 1181.48 251.629C1181.03 249.579 1180.6 247.389 1180.21 245.242C1176.99 226.578 1174.65 207.34 1178 188.551C1178 188.548 1178 188.545 1178 188.542C1181.45 168.44 1180.84 147.854 1181.4 127.304C1181.43 125.102 1181.46 122.85 1181.48 120.662C1179.16 120.887 1176.84 121.113 1174.52 121.338C1174.94 123.383 1175.34 125.606 1175.71 127.744C1178.92 147.793 1181.45 168.401 1178 188.542C1178 188.545 1178 188.548 1178 188.551C1174.66 207.301 1175.1 226.502 1174.6 245.707C1174.56 247.929 1174.53 250.151 1174.52 252.371Z" fill="white"/>
<path d="M29.5197 312.629C31.8399 312.876 34.1601 313.124 36.4803 313.371C36.0263 315.421 35.6011 317.611 35.2059 319.758C31.9887 338.422 29.6537 357.66 32.9981 376.449C32.9987 376.452 32.9994 376.455 33 376.458C36.4479 396.56 35.8353 417.146 36.3986 437.696C36.4329 439.898 36.4632 442.15 36.4836 444.338C34.1612 444.113 31.8388 443.887 29.5164 443.662C29.937 441.617 30.3369 439.394 30.7074 437.256C33.9226 417.207 36.4509 396.599 33 376.458C32.9994 376.455 32.9987 376.452 32.9981 376.449C29.658 357.699 30.1009 338.498 29.5956 319.293C29.5638 317.071 29.5323 314.849 29.5197 312.629Z" fill="white"/>
<path d="M1174.52 312.629C1176.84 312.876 1179.16 313.124 1181.48 313.371C1181.03 315.421 1180.6 317.611 1180.21 319.758C1176.99 338.422 1174.65 357.66 1178 376.449C1178 376.452 1178 376.455 1178 376.458C1181.45 396.56 1180.84 417.146 1181.4 437.696C1181.43 439.898 1181.46 442.15 1181.48 444.338C1179.16 444.113 1176.84 443.887 1174.52 443.662C1174.94 441.617 1175.34 439.394 1175.71 437.256C1178.92 417.207 1181.45 396.599 1178 376.458C1178 376.455 1178 376.452 1178 376.449C1174.66 357.699 1175.1 338.498 1174.6 319.293C1174.56 317.071 1174.53 314.849 1174.52 312.629Z" fill="white"/>
<path d="M139.41 555.55C139.803 557.85 140.197 560.15 140.59 562.45C147.742 561.019 155.268 559.709 162.686 558.501C226.916 549.161 294.054 540.703 357.423 558.973C357.449 558.982 357.475 558.991 357.501 559C425.447 577.882 497.264 570.334 567.017 564.87C574.502 564.146 582.19 563.344 589.539 562.458C589.18 560.153 588.82 557.847 588.461 555.542C581.339 556.851 573.697 558.082 566.315 559.206C497.36 568.406 425.51 577.889 357.501 559C357.475 558.991 357.449 558.982 357.423 558.973C294.119 540.715 227.035 547.255 161.944 552.921C154.408 553.709 146.83 554.563 139.41 555.55Z" fill="white"/>
<path d="M645.41 35.45C645.803 33.15 646.197 30.85 646.59 28.55C653.742 29.9808 661.268 31.2908 668.686 32.4987C732.916 41.8393 800.054 50.2966 863.423 32.0265C863.449 32.0177 863.475 32.0088 863.501 32C931.447 13.1184 1003.26 20.6656 1073.02 26.1296C1080.5 26.8544 1088.19 27.6558 1095.54 28.5417C1095.18 30.8472 1094.82 33.1528 1094.46 35.4583C1087.34 34.149 1079.7 32.9179 1072.31 31.7944C1003.36 22.5938 931.51 13.1106 863.501 32C863.475 32.0088 863.449 32.0177 863.423 32.0265C800.119 50.2853 733.035 43.7446 667.944 38.079C660.408 37.2906 652.83 36.4367 645.41 35.45Z" fill="white"/>
<path d="M645.41 561.45C645.803 559.15 646.197 556.85 646.59 554.55C653.742 555.981 661.268 557.291 668.686 558.499C732.916 567.839 800.054 576.297 863.423 558.027C863.449 558.018 863.475 558.009 863.501 558C931.447 539.118 1003.26 546.666 1073.02 552.13C1080.5 552.854 1088.19 553.656 1095.54 554.542C1095.18 556.847 1094.82 559.153 1094.46 561.458C1087.34 560.149 1079.7 558.918 1072.31 557.794C1003.36 548.594 931.51 539.111 863.501 558C863.475 558.009 863.449 558.018 863.423 558.027C800.119 576.285 733.035 569.745 667.944 564.079C660.408 563.291 652.83 562.437 645.41 561.45Z" fill="white"/>
<path d="M621.587 18.5929C621.069 17.7372 620.552 16.8815 620.034 16.0258C619.218 16.6438 618.479 17.2404 617.723 17.8787C611.236 23.1511 606.861 30.4327 604.928 38.2338C602.702 46.8566 600.906 56.6596 593.704 62.0599C592.973 62.6485 592.264 63.1488 591.472 63.6599C592.095 64.4419 592.718 65.224 593.341 66.0061C594.089 65.2876 594.742 64.5954 595.416 63.8231C602.035 56.5613 602.617 46.9061 604.928 38.2338C606.85 30.3858 612.094 23.4967 619.089 19.8509C619.909 19.3984 620.712 18.9991 621.587 18.5929Z" fill="white"/>
<path d="M622.587 532.593C622.069 531.737 621.552 530.881 621.034 530.026C620.218 530.644 619.479 531.24 618.723 531.879C612.236 537.151 607.861 544.433 605.928 552.234C603.702 560.857 601.906 570.66 594.704 576.06C593.973 576.649 593.264 577.149 592.472 577.66C593.095 578.442 593.718 579.224 594.341 580.006C595.089 579.288 595.742 578.595 596.416 577.823C603.035 570.561 603.617 560.906 605.928 552.234C607.85 544.386 613.094 537.497 620.089 533.851C620.909 533.398 621.712 532.999 622.587 532.593Z" fill="white"/>
<path d="M69.3984 284.028C70.1462 283.364 70.894 282.7 71.6417 282.036C70.8859 281.345 70.1653 280.726 69.4006 280.098C63.04 274.675 55.0863 271.691 47.064 271.204C38.1806 270.578 28.2145 270.588 21.5984 264.483C20.8871 263.871 20.2666 263.264 19.6205 262.578C18.9643 263.333 18.3081 264.087 17.6519 264.842C18.494 265.447 19.2931 265.964 20.1746 266.486C28.5156 271.68 38.1165 270.503 47.064 271.204C55.1304 271.673 62.8557 275.581 67.7086 281.799C68.3021 282.524 68.8403 283.241 69.3984 284.028Z" fill="white"/>
<path d="M1192.4 284.028C1193.15 283.364 1193.89 282.7 1194.64 282.036C1193.89 281.345 1193.17 280.726 1192.4 280.098C1186.04 274.675 1178.09 271.691 1170.06 271.204C1161.18 270.578 1151.21 270.588 1144.6 264.483C1143.89 263.871 1143.27 263.264 1142.62 262.578C1141.96 263.333 1141.31 264.087 1140.65 264.842C1141.49 265.447 1142.29 265.964 1143.17 266.486C1151.52 271.68 1161.12 270.503 1170.06 271.204C1178.13 271.673 1185.86 275.581 1190.71 281.799C1191.3 282.524 1191.84 283.241 1192.4 284.028Z" fill="white"/>
<path d="M644.587 18.5929C644.069 17.7372 643.552 16.8815 643.034 16.0258C642.218 16.6438 641.479 17.2404 640.723 17.8787C634.236 23.1511 629.861 30.4327 627.928 38.2338C625.702 46.8566 623.906 56.6596 616.704 62.0599C615.973 62.6485 615.264 63.1488 614.472 63.6599C615.095 64.4419 615.718 65.224 616.341 66.0061C617.089 65.2876 617.742 64.5954 618.416 63.8231C625.035 56.5613 625.617 46.9061 627.928 38.2338C629.85 30.3858 635.094 23.4967 642.089 19.8509C642.909 19.3984 643.712 18.9991 644.587 18.5929Z" fill="white"/>
<path d="M645.587 532.593C645.069 531.737 644.552 530.881 644.034 530.026C643.218 530.644 642.479 531.24 641.723 531.879C635.236 537.151 630.861 544.433 628.928 552.234C626.702 560.857 624.906 570.66 617.704 576.06C616.973 576.649 616.264 577.149 615.472 577.66C616.095 578.442 616.718 579.224 617.341 580.006C618.089 579.288 618.742 578.595 619.416 577.823C626.035 570.561 626.617 560.906 628.928 552.234C630.85 544.386 636.094 537.497 643.089 533.851C643.909 533.398 644.712 532.999 645.587 532.593Z" fill="white"/>
<path d="M73.5664 306.647C74.3142 305.983 75.0619 305.319 75.8097 304.656C75.0539 303.964 74.3333 303.346 73.5685 302.718C67.208 297.294 59.2542 294.311 51.2319 293.823C42.3486 293.197 32.3824 293.207 25.7663 287.102C25.0551 286.49 24.4346 285.884 23.7885 285.197C23.1323 285.952 22.4761 286.707 21.8199 287.461C22.662 288.066 23.4611 288.583 24.3426 289.106C32.6836 294.299 42.2845 293.122 51.2319 293.823C59.2984 294.292 67.0237 298.201 71.8765 304.419C72.4701 305.143 73.0083 305.86 73.5664 306.647Z" fill="white"/>
<path d="M1196.57 306.647C1197.31 305.983 1198.06 305.319 1198.81 304.656C1198.05 303.964 1197.33 303.346 1196.57 302.718C1190.21 297.294 1182.25 294.311 1174.23 293.823C1165.35 293.197 1155.38 293.207 1148.77 287.102C1148.06 286.49 1147.43 285.884 1146.79 285.197C1146.13 285.952 1145.48 286.707 1144.82 287.461C1145.66 288.066 1146.46 288.583 1147.34 289.106C1155.68 294.299 1165.28 293.122 1174.23 293.823C1182.3 294.292 1190.02 298.201 1194.88 304.419C1195.47 305.143 1196.01 305.86 1196.57 306.647Z" fill="white"/>
</svg>
